<?xml version="1.0" standalone="no"?>
<!DOCTYPE svg PUBLIC "-//W3C//DTD SVG 20010904//EN"
 "http://www.w3.org/TR/2001/REC-SVG-20010904/DTD/svg10.dtd">
<svg version="1.0" xmlns="http://www.w3.org/2000/svg"
 width="3000.000000pt" height="2000.000000pt" viewBox="0 0 3000.000000 2000.000000"
 preserveAspectRatio="xMidYMid meet">

<g transform="translate(0.000000,2000.000000) scale(0.100000,-0.100000)"
fill="#000000" stroke="none">
<path d="M10693 16985 c-102 -31 -176 -96 -222 -195 -23 -50 -26 -67 -26 -175
0 -109 2 -125 27 -177 55 -119 162 -196 285 -206 l63 -5 0 -2758 c0 -1828 3
-2760 10 -2764 7 -4 10 918 10 2759 l0 2766 6308 -2 6307 -3 5 -3535 5 -3535
5 3535 5 3535 66 7 c127 12 245 100 290 216 29 73 32 251 6 321 -39 101 -129
186 -231 216 -44 13 -832 15 -6460 14 -5273 0 -6418 -3 -6453 -14z"/>
<path d="M22343 15383 c15 -2 37 -2 50 0 12 2 0 4 -28 4 -27 0 -38 -2 -22 -4z"/>
<path d="M22165 15359 c-140 -34 -292 -88 -495 -175 -115 -49 -402 -199 -515
-269 -209 -129 -431 -297 -599 -455 -59 -56 -253 -275 -665 -753 -61 -70 -99
-106 -108 -103 -8 3 -12 2 -9 -2 2 -4 -41 -32 -96 -62 -371 -201 -532 -390
-580 -681 -19 -119 -18 -118 -146 -103 -116 13 -281 30 -432 45 -52 5 -114 11
-138 15 l-43 5 73 82 c39 45 76 81 81 79 5 -1 6 2 2 7 -3 6 3 16 15 23 11 7
20 18 20 24 0 25 216 217 325 289 220 146 417 222 695 268 23 4 23 4 -4 6 -82
4 -371 -82 -511 -151 -228 -114 -386 -246 -615 -513 -96 -113 -101 -120 -78
-126 12 -4 172 -22 353 -40 182 -17 334 -35 338 -39 5 -4 -11 -30 -35 -56 -24
-27 -92 -107 -151 -177 l-109 -127 49 -44 c26 -23 104 -92 173 -151 69 -59
154 -135 189 -167 62 -58 63 -60 42 -74 -13 -10 -21 -26 -21 -44 0 -30 3 -34
53 -71 38 -29 35 -60 -10 -101 -108 -99 -123 -116 -123 -142 0 -60 102 -58
225 4 58 30 155 112 155 132 0 22 13 11 364 -291 153 -132 190 -169 187 -185
-3 -12 -6 -902 -8 -1978 l-3 -1958 -450 0 -450 0 0 959 0 960 -31 -11 c-16 -6
-70 -9 -118 -6 -72 3 -95 9 -133 31 -121 71 -172 211 -117 319 24 47 33 57 70
81 25 17 26 19 13 55 -25 69 -11 134 42 191 49 55 109 75 200 68 l74 -5 0 224
0 224 -62 0 c-35 0 -106 7 -158 15 -52 8 -132 15 -177 15 -112 0 -168 -23
-274 -110 -155 -130 -210 -167 -270 -185 l-59 -18 0 -1404 0 -1403 -455 0
-455 0 -2 1122 -3 1122 -115 -103 c-63 -57 -153 -138 -200 -181 -167 -151
-278 -251 -475 -427 l-200 -179 -3 -677 -2 -677 -359 0 -359 0 -6 35 c-4 20
-6 173 -5 340 1 168 -2 305 -7 304 -5 0 -44 -31 -88 -69 l-78 -67 -28 29 c-27
28 -30 29 -70 18 -26 -7 -106 -10 -210 -8 -93 2 -171 0 -174 -3 -4 -3 5 -26
19 -50 27 -48 30 -59 15 -59 -6 0 -34 -16 -63 -35 -28 -19 -110 -69 -182 -112
l-130 -78 -3 -123 -3 -123 -201 1 c-131 1 -204 -2 -211 -9 -12 -12 5590 -13
6723 -2 349 4 546 8 438 9 l-198 2 0 2043 0 2044 39 90 c69 159 118 345 126
481 5 76 5 76 -10 -23 -45 -314 -170 -599 -367 -837 -29 -35 -57 -68 -63 -74
-6 -6 -42 -48 -80 -93 l-70 -83 -11 44 c-6 23 -46 178 -89 343 -42 165 -79
303 -81 307 -3 4 6 20 19 35 14 15 73 84 132 153 60 69 112 124 117 123 4 -2
7 1 5 6 -2 10 33 55 143 181 41 47 98 112 125 145 28 32 79 93 115 135 36 41
101 118 145 170 44 52 85 100 91 107 80 84 467 549 537 645 392 540 695 1319
712 1833 l4 120 -9 -113 c-42 -530 -295 -1201 -651 -1727 -113 -168 -171 -239
-479 -595 -140 -162 -266 -308 -280 -324 -14 -17 -41 -48 -61 -70 -19 -23 -92
-106 -160 -186 -69 -80 -167 -194 -219 -254 -52 -60 -140 -162 -195 -226 -256
-297 -406 -470 -411 -470 -4 0 -261 221 -599 515 -33 28 -145 125 -250 215
-104 90 -254 220 -333 288 l-143 125 22 23 c12 13 26 21 32 17 6 -3 7 -1 3 6
-5 7 14 36 44 72 45 51 55 58 69 47 14 -12 15 -11 2 5 -13 16 -11 21 12 45
l27 26 32 -29 33 -30 -29 32 c-18 20 -25 36 -20 45 10 16 740 867 903 1053 15
17 147 170 294 342 380 443 538 590 882 820 228 152 624 347 895 441 88 31
263 78 315 85 28 4 28 4 -5 5 -19 0 -71 -8 -115 -19z"/>
<path d="M22440 15373 c8 -3 24 -10 35 -15 20 -9 20 -9 1 6 -11 9 -27 16 -35
15 -14 0 -14 -1 -1 -6z"/>
<path d="M22511 15323 c7 -12 15 -20 18 -17 3 2 -3 12 -13 22 -17 16 -18 16
-5 -5z"/>
<path d="M22537 15250 c3 -25 7 -47 9 -49 8 -9 2 55 -6 74 -6 13 -7 5 -3 -25z"/>
<path d="M9270 14717 c-25 -7 -67 -25 -94 -40 -33 -18 -63 -27 -95 -27 -85 0
-188 -68 -224 -147 -10 -23 -14 -24 -56 -16 -26 4 -82 8 -126 8 -65 0 -91 -5
-137 -27 -66 -30 -145 -105 -171 -160 -18 -38 -18 -38 -80 -38 -119 0 -220
-75 -253 -186 -17 -59 -14 -131 8 -179 10 -22 7 -29 -34 -67 -76 -72 -102
-146 -73 -214 22 -53 52 -82 95 -94 l36 -10 3 -102 c5 -259 32 -540 59 -621
17 -50 18 -51 70 -63 104 -23 131 -70 143 -251 5 -74 11 -139 14 -144 4 -5 17
-9 31 -9 78 0 154 327 185 796 12 176 13 180 41 210 19 20 32 50 40 88 15 68
31 80 96 73 104 -12 226 57 263 148 16 40 16 40 34 25 21 -18 85 -16 122 4 18
9 52 42 77 75 86 111 123 131 215 113 88 -16 122 15 141 130 15 99 25 115 81
133 59 20 160 8 213 -24 45 -28 134 -123 184 -198 103 -152 158 -279 196 -456
6 -24 10 -26 34 -21 146 33 242 173 212 308 -19 84 -66 143 -158 196 -11 6 -8
19 14 61 96 183 -18 387 -226 406 -57 6 -58 6 -65 41 -17 89 -106 200 -191
238 -58 26 -206 25 -259 -1 l-40 -20 -65 33 c-76 39 -184 51 -260 29z"/>
<path d="M21188 14471 c-77 -25 -133 -60 -194 -121 -187 -185 -191 -488 -9
-679 190 -199 506 -203 695 -9 53 55 120 165 120 198 0 7 -16 -18 -34 -56 -83
-166 -240 -264 -421 -264 -141 0 -260 52 -350 152 -215 239 -140 605 152 739
131 60 267 58 399 -6 135 -66 242 -209 263 -352 6 -44 9 -49 10 -22 1 43 -23
128 -54 189 -52 101 -159 191 -273 229 -80 27 -222 28 -304 2z"/>
<path d="M11910 14430 c-14 -4 81 -8 215 -8 134 0 229 4 215 8 -14 4 -110 8
-215 8 -104 0 -201 -4 -215 -8z"/>
<path d="M21357 14030 c3 -151 9 -297 14 -325 5 -29 6 64 3 225 -3 151 -10
298 -14 325 -5 30 -7 -61 -3 -225z"/>
<path d="M11868 13501 c-11 -1138 -10 -3243 2 -3261 6 -10 10 348 10 1021 l0
1035 198 -3 c108 -2 217 0 242 5 33 7 -17 10 -197 11 l-243 1 0 525 0 525 248
1 c216 2 234 3 147 11 -55 4 -166 5 -247 2 l-148 -6 -2 459 c-3 423 -4 399
-10 -326z"/>
<path d="M21246 14020 c10 -234 24 -294 19 -85 -2 99 -8 191 -14 205 -8 19 -9
-12 -5 -120z"/>
<path d="M21801 13894 c0 -11 3 -14 6 -6 3 7 2 16 -1 19 -3 4 -6 -2 -5 -13z"/>
<path d="M19603 13603 c15 -2 39 -2 55 0 15 2 2 4 -28 4 -30 0 -43 -2 -27 -4z"/>
<path d="M19870 13568 c0 -8 372 -332 905 -786 171 -146 320 -274 333 -285 12
-11 22 -18 22 -15 0 3 -57 55 -127 116 -71 60 -218 187 -328 282 -110 95 -292
252 -405 348 -323 277 -343 294 -372 321 -16 13 -28 22 -28 19z"/>
<path d="M9043 13400 c-78 -16 -154 -64 -139 -88 6 -10 366 -6 376 4 10 11
-19 40 -61 61 -53 26 -119 34 -176 23z"/>
<path d="M9953 13389 c-55 -10 -99 -34 -119 -65 -26 -39 -9 -48 74 -35 39 6
105 11 146 11 41 0 77 4 80 9 27 44 -90 96 -181 80z"/>
<path d="M9540 13138 c0 -25 70 -216 172 -471 107 -265 109 -246 -28 -267 -48
-7 -81 -16 -73 -20 22 -11 185 5 203 19 9 8 16 29 16 47 0 66 -288 754 -290
692z"/>
<path d="M9925 13139 c-41 -16 -95 -57 -95 -74 0 -11 11 -10 55 6 65 23 157
25 215 4 53 -19 60 -19 60 0 0 8 -20 26 -45 41 -51 30 -141 40 -190 23z"/>
<path d="M9010 13117 c-24 -12 -50 -33 -59 -46 -18 -28 -21 -28 89 3 71 21 95
20 171 -4 35 -10 65 -17 68 -14 11 11 -17 40 -59 62 -61 31 -151 30 -210 -1z"/>
<path d="M20154 12638 c-360 -410 -466 -533 -398 -462 41 42 136 148 299 333
16 19 53 60 80 90 28 31 106 121 174 201 69 80 133 155 144 168 11 12 18 22
15 22 -2 0 -144 -158 -314 -352z"/>
<path d="M9970 12880 c-49 -49 -10 -140 60 -140 44 0 84 40 84 83 0 52 -27 77
-81 77 -30 0 -49 -6 -63 -20z"/>
<path d="M9203 12840 c-26 -11 -43 -40 -43 -75 0 -38 16 -61 48 -73 40 -14 79
-4 102 26 57 71 -19 157 -107 122z"/>
<path d="M19050 12656 c0 -2 8 -10 18 -17 15 -13 16 -12 3 4 -13 16 -21 21
-21 13z"/>
<path d="M20342 12653 c-25 -10 -34 -53 -17 -79 29 -45 105 -23 105 30 0 22
-27 56 -46 56 -4 0 2 -7 14 -16 39 -27 23 -84 -23 -84 -51 0 -67 66 -22 88 22
11 13 15 -11 5z"/>
<path d="M19090 12626 c0 -4 199 -177 390 -340 14 -11 70 -60 125 -107 55 -47
222 -188 370 -314 149 -125 280 -237 293 -248 12 -11 22 -18 22 -14 0 6 -327
287 -780 673 -380 322 -420 356 -420 350z"/>
<path d="M19050 12557 c0 -2 15 -16 33 -33 l32 -29 -29 33 c-28 30 -36 37 -36
29z"/>
<path d="M18990 12498 c0 -6 583 -508 846 -728 55 -47 155 -131 222 -188 67
-56 122 -101 122 -98 0 4 -157 141 -335 291 -39 33 -178 152 -310 265 -132
113 -298 254 -370 314 -71 60 -140 118 -152 129 -13 11 -23 18 -23 15z"/>
<path d="M19120 12497 c0 -6 120 -110 581 -503 350 -298 549 -465 549 -460 0
4 -274 243 -415 361 -105 88 -666 565 -692 588 -13 11 -23 18 -23 14z"/>
<path d="M18910 12457 c0 -6 244 -216 720 -622 386 -329 491 -417 494 -414 2
2 -150 135 -337 294 -187 160 -374 319 -416 356 -42 36 -134 114 -206 174 -71
60 -158 133 -192 163 -35 30 -63 52 -63 49z"/>
<path d="M18860 12385 c13 -14 26 -25 28 -25 3 0 -5 11 -18 25 -13 14 -26 25
-28 25 -3 0 5 -11 18 -25z"/>
<path d="M21171 12384 c0 -11 3 -14 6 -6 3 7 2 16 -1 19 -3 4 -6 -2 -5 -13z"/>
<path d="M18944 12316 c37 -35 263 -230 651 -561 267 -228 457 -387 451 -377
-7 12 -429 375 -886 762 -253 214 -266 224 -216 176z"/>
<path d="M21183 12300 c0 -25 2 -35 4 -22 2 12 2 32 0 45 -2 12 -4 2 -4 -23z"/>
<path d="M9317 12284 c-12 -67 36 -158 108 -199 54 -32 149 -44 186 -25 22 12
19 14 -48 30 -115 27 -179 81 -214 183 -15 43 -25 47 -32 11z"/>
<path d="M19990 12261 c-23 -45 -1 -91 45 -91 32 0 55 26 54 58 l-2 27 -4 -25
c-7 -34 -21 -50 -47 -50 -44 0 -62 52 -30 84 8 9 11 16 5 16 -6 0 -15 -9 -21
-19z"/>
<path d="M21194 12140 c0 -52 1 -74 3 -47 2 26 2 68 0 95 -2 26 -3 4 -3 -48z"/>
<path d="M20210 11455 c13 -14 26 -25 28 -25 3 0 -5 11 -18 25 -13 14 -26 25
-28 25 -3 0 5 -11 18 -25z"/>
<path d="M20075 11350 c10 -11 20 -20 23 -20 3 0 -3 9 -13 20 -10 11 -20 20
-23 20 -3 0 3 -9 13 -20z"/>
<path d="M11900 11240 c0 -6 82 -10 226 -10 147 0 223 3 219 10 -4 6 -90 10
-226 10 -139 0 -219 -4 -219 -10z"/>
<path d="M8260 10976 c-23 -31 -46 -53 -51 -50 -5 3 -6 -1 -4 -9 3 -7 -12 -34
-35 -59 -22 -25 -40 -49 -40 -52 0 -3 -45 -67 -101 -142 -72 -97 -98 -141 -93
-152 4 -10 6 -21 5 -25 -1 -5 3 -6 8 -3 5 4 15 1 23 -6 7 -7 32 -26 56 -42
l43 -30 -77 -74 -77 -75 7 -111 c4 -61 9 -127 11 -146 3 -19 12 -109 20 -200
22 -226 70 -613 101 -800 70 -429 120 -621 274 -1050 29 -80 93 -265 143 -413
49 -147 92 -266 94 -263 9 9 -110 386 -239 755 -130 372 -188 612 -257 1062
-47 302 -105 817 -124 1101 l-4 57 79 73 c43 40 78 77 78 83 0 5 -25 28 -55
49 -30 22 -55 44 -55 49 0 6 -3 7 -7 4 -3 -4 -12 -2 -19 4 -10 8 1 30 53 102
36 51 70 94 75 95 4 2 8 9 8 15 0 7 10 23 23 37 12 14 40 52 62 85 22 33 60
86 84 118 24 32 41 60 38 63 -3 3 -24 -20 -47 -50z"/>
<path d="M10405 10814 c19 -26 32 -51 28 -57 -3 -5 -2 -7 4 -4 5 3 30 -21 54
-54 24 -33 59 -76 76 -97 18 -20 33 -41 33 -47 -1 -5 -37 -37 -82 -69 l-82
-59 100 -33 c54 -18 100 -34 101 -34 1 0 0 -12 -2 -27 -2 -16 -6 -269 -10
-563 -3 -294 -8 -665 -10 -825 -7 -460 -13 -1773 -9 -1740 67 464 101 991 134
2075 18 614 23 952 12 959 -17 10 -92 115 -92 128 0 7 -38 24 -86 39 l-86 27
29 24 c15 13 47 37 69 53 37 26 66 63 45 57 -9 -2 -83 85 -173 205 -32 41 -64
78 -73 82 -9 3 0 -15 20 -40z"/>
<path d="M8343 10826 c0 -7 6 -13 12 -12 12 1 127 -97 250 -213 88 -83 244
-221 291 -258 l41 -32 6 72 c6 76 35 165 67 207 l20 25 231 -235 c127 -129
227 -228 223 -220 -8 16 -54 66 -220 239 -56 58 -130 136 -164 174 -34 37 -68
67 -74 67 -32 0 -106 -176 -106 -252 0 -15 -3 -28 -6 -28 -8 0 -84 65 -271
232 -140 124 -287 248 -296 248 -2 0 -4 -6 -4 -14z"/>
<path d="M9942 10809 c-2 -41 -16 -122 -38 -227 l-16 -73 -30 47 c-29 47 -135
164 -148 164 -3 0 -17 -44 -29 -97 -19 -77 -97 -324 -145 -458 -4 -11 0 -7 9
8 29 50 102 249 135 367 17 63 34 121 36 129 7 20 64 -37 113 -113 73 -112 66
-109 84 -29 23 101 39 233 34 279 l-4 39 -1 -36z"/>
<path d="M4258 10445 c-113 -29 -216 -95 -287 -185 l-38 -47 -39 29 c-158 119
-429 179 -591 130 -140 -43 -267 -155 -332 -293 l-36 -76 -35 15 c-53 23 -173
20 -240 -6 -75 -29 -159 -98 -204 -166 -75 -113 -97 -232 -77 -411 16 -150 31
-376 40 -605 5 -151 11 -214 23 -236 l15 -30 -42 -18 c-42 -17 -74 -46 -108
-99 -16 -25 -16 -29 -2 -49 8 -13 15 -29 15 -38 -1 -8 -7 -2 -14 15 l-12 30
-8 -25 c-5 -14 -9 -34 -10 -45 -1 -11 -6 -37 -10 -58 -5 -30 -4 -37 5 -31 8 5
10 3 4 -5 -10 -18 16 -128 37 -150 9 -11 14 -22 10 -26 -4 -4 2 -3 14 3 26 13
47 2 29 -15 -11 -10 -15 -10 -18 0 -4 9 -6 9 -6 0 -1 -15 36 -36 49 -28 6 3 7
-1 4 -9 -5 -12 1 -16 21 -16 14 0 23 -4 20 -10 -3 -5 7 -12 22 -16 15 -3 34
-8 42 -10 7 -2 20 1 27 7 19 15 62 -24 47 -43 -6 -7 -14 -83 -18 -168 -12
-285 -17 -365 -30 -481 -4 -43 -3 -74 4 -87 9 -17 8 -21 -5 -24 -14 -3 -72
-135 -130 -296 -13 -39 -41 -78 -96 -139 -258 -282 -447 -666 -473 -963 -6
-59 -10 -77 -15 -60 -50 177 -245 261 -403 172 -29 -16 -67 -48 -84 -71 -67
-87 -63 47 -63 -1992 l0 -1848 -48 -3 c-256 -16 20788 -23 25508 -9 1136 4
1933 8 1773 9 -161 1 -293 4 -293 7 0 5 151 682 370 1660 370 1651 382 1708
375 1754 -21 137 -139 241 -275 241 -104 0 -206 -65 -247 -156 -12 -27 -54
-193 -92 -369 -39 -176 -107 -486 -151 -690 -45 -203 -105 -480 -135 -615 -65
-294 -236 -1073 -300 -1365 -25 -115 -59 -267 -76 -337 l-31 -128 -2906 0
c-1599 0 -6461 3 -10804 7 l-7898 6 0 267 0 267 3703 6 c2036 3 6214 5 9284 6
l5583 1 3 -187 2 -188 3 193 2 192 -437 1 -438 0 67 19 c37 11 113 37 170 59
69 26 128 42 178 46 185 16 341 63 531 159 176 89 306 177 549 372 190 152
427 378 545 519 28 33 58 69 68 80 66 73 189 280 212 355 4 14 19 38 32 54 24
29 77 126 69 126 -2 0 -26 -33 -53 -72 -89 -136 -389 -417 -708 -664 -191
-149 -624 -472 -705 -526 -14 -10 -63 -44 -110 -77 -287 -203 -584 -356 -798
-412 -95 -25 -224 -27 -312 -4 -81 21 -206 86 -273 144 -29 24 -53 47 -55 51
-2 5 -18 25 -37 44 -44 47 -100 163 -119 246 -12 52 -16 196 -20 730 -4 366
-9 817 -12 1003 l-5 337 38 0 c21 0 164 7 318 15 490 25 637 29 644 17 3 -5 5
-374 4 -819 -1 -444 1 -848 5 -898 6 -87 6 -88 13 -40 4 28 8 180 7 338 l0
288 430 432 c236 238 454 459 484 492 30 33 102 112 159 175 418 462 676 619
898 546 15 -5 21 -5 17 2 -3 5 -34 15 -69 22 -113 21 -232 -14 -380 -113 -87
-57 -204 -154 -264 -217 -15 -16 -31 -27 -35 -24 -5 3 -7 2 -6 -3 2 -5 -38
-52 -88 -104 -50 -52 -152 -161 -226 -244 -123 -137 -899 -915 -912 -915 -3 0
-6 252 -6 561 l0 561 -132 -6 c-73 -4 -171 -9 -218 -11 -47 -3 -191 -9 -320
-15 -129 -5 -268 -13 -309 -16 l-73 -6 7 -718 7 -718 -28 -5 c-16 -3 -51 -9
-77 -12 l-48 -6 5 -52 c4 -29 15 -153 27 -277 28 -315 57 -423 147 -564 76
-121 186 -205 314 -241 48 -14 -120 -15 -1622 -10 -921 3 -1978 5 -2347 5
l-673 0 0 160 0 160 998 1 c548 1 1314 5 1702 8 535 5 253 8 -1172 9 l-1878 2
0 90 0 90 1895 0 1894 0 4 -78 3 -77 2 83 c2 79 1 82 -20 82 -13 1 -870 3
-1905 6 l-1883 6 -8 -21 c-6 -16 -37 61 -131 326 -68 192 -159 450 -204 576
l-80 227 -956 0 c-904 0 -957 -1 -958 -17 0 -10 -37 -121 -82 -248 -125 -349
-453 -1335 -448 -1348 2 -7 13 15 24 48 176 504 493 1448 493 1466 0 4 5 20
11 36 10 25 27 -20 190 -492 277 -806 344 -996 347 -987 1 4 -18 66 -42 137
l-44 130 172 3 c94 1 180 0 191 -2 15 -4 29 -30 54 -103 19 -54 36 -104 39
-110 3 -10 -39 -13 -175 -16 l-178 -2 182 -3 181 -2 22 -66 c12 -36 24 -63 26
-61 2 2 -5 29 -15 60 l-20 57 194 0 193 0 17 -51 c21 -63 29 -60 10 4 l-14 47
192 0 193 0 19 -55 c10 -30 20 -53 23 -51 2 3 -3 26 -12 52 -9 26 -15 48 -13
50 1 1 86 4 190 6 l187 3 20 -53 c11 -29 20 -57 20 -62 0 -5 4 -11 10 -15 5
-3 0 20 -10 51 -11 32 -20 63 -20 70 0 10 34 14 148 17 l147 3 -152 2 -151 2
-15 43 c-24 66 -57 170 -57 179 0 4 57 9 128 11 l127 3 -132 2 -131 2 -36 108
c-20 59 -36 113 -36 119 0 9 37 13 133 16 l132 3 -140 2 -141 2 -37 113 c-20
62 -37 116 -37 120 0 3 57 8 128 10 l127 3 -132 2 -131 2 -27 78 c-15 42 -33
96 -40 119 l-14 42 132 4 132 3 -135 2 -135 2 -33 98 c-18 53 -32 100 -32 105
0 4 60 8 133 9 l132 2 -139 6 -139 5 -40 113 c-22 62 -42 110 -44 108 -4 -4
37 -140 65 -213 5 -14 -116 -16 -287 -4 l-93 6 -18 45 c-9 25 -29 80 -44 123
-44 122 -40 84 4 -48 22 -66 40 -120 40 -122 0 -2 -85 -3 -189 -3 l-189 0 -11
28 c-15 39 -81 224 -81 228 0 2 244 3 542 2 l541 -3 214 -590 c192 -531 213
-596 213 -652 0 -59 1 -63 23 -63 20 0 27 -11 52 -80 15 -45 29 -79 31 -77 2
2 -7 37 -21 77 -14 40 -25 75 -25 77 0 2 65 3 145 3 l145 0 0 -165 0 -165
-3490 0 -3490 0 0 288 c0 159 -3 356 -6 438 l-7 149 -106 0 c-103 0 -178 16
-165 36 3 5 -1 7 -8 4 -7 -3 -32 12 -56 32 l-43 38 76 340 c41 187 82 367 90
400 44 183 165 749 163 757 -2 6 -25 -84 -52 -198 -105 -459 -516 -2264 -516
-2269 0 -3 -619 -5 -1375 -5 -1362 0 -1375 0 -1395 20 -40 40 -11 99 50 105
19 2 614 4 1321 4 l1287 1 16 73 c8 39 31 144 50 232 131 600 289 1329 362
1665 46 217 89 409 95 426 5 17 20 36 32 42 17 8 18 11 5 11 -32 2 -49 -46
-98 -266 -27 -120 -70 -310 -95 -423 -26 -113 -58 -257 -71 -320 -14 -63 -32
-144 -40 -180 -8 -36 -22 -100 -31 -142 -9 -43 -19 -78 -23 -78 -14 0 -133
249 -126 265 3 9 2 14 -3 11 -11 -7 -51 159 -51 212 0 40 -67 592 -72 598 -2
1 -53 -11 -113 -28 -278 -75 -712 -171 -955 -210 -125 -19 -181 -23 -405 -22
-271 0 -385 8 -724 50 -112 14 -204 24 -206 22 -1 -2 -19 -68 -39 -148 -58
-228 -131 -456 -216 -674 -23 -58 -39 -109 -36 -114 3 -5 -8 -6 -24 -4 -26 4
-29 1 -33 -29 -2 -22 -4 -14 -5 23 -2 69 18 60 -222 88 -96 12 -321 38 -500
60 -179 22 -347 42 -375 45 -27 3 -358 43 -734 90 -376 47 -689 85 -695 85 -6
0 -42 39 -81 87 -228 281 -688 828 -933 1110 -77 88 -83 98 -347 618 l-167
329 -15 166 c-20 218 -16 204 -63 220 -22 7 -40 16 -40 20 0 4 -10 12 -22 19
-22 11 -22 11 -2 7 20 -3 23 2 29 60 3 35 4 74 1 86 -3 13 -3 16 1 8 4 -9 14
28 23 84 l15 99 83 19 c45 11 80 24 77 29 -4 5 11 9 32 9 30 0 35 3 23 11 -12
9 -10 10 9 5 41 -9 137 51 231 144 90 89 124 138 109 161 -14 22 -10 34 4 15
13 -17 15 -14 31 30 10 27 18 58 19 69 0 11 4 22 8 25 12 9 24 98 24 183 0 42
3 77 6 77 3 0 5 28 4 63 -1 34 1 69 6 78 11 21 34 1178 24 1210 -4 11 -13 15
-28 13 -19 -4 -19 -3 3 6 14 6 50 16 80 22 84 15 181 71 248 142 102 110 146
236 144 421 -2 352 -214 656 -522 750 -76 23 -250 29 -322 10z m-28 -745 c8
-5 11 -10 5 -10 -5 0 -17 5 -25 10 -8 5 -10 10 -5 10 6 0 17 -5 25 -10z m57 4
c-3 -3 -12 -4 -19 -1 -8 3 -5 6 6 6 11 1 17 -2 13 -5z m-92 -14 c16 -7 14 -8
-12 -7 -17 1 -29 5 -26 10 5 9 12 8 38 -3z m180 0 c8 -13 -5 -13 -25 0 -13 8
-13 10 2 10 9 0 20 -4 23 -10z m-862 -7 c-7 -2 -21 -2 -30 0 -10 3 -4 5 12 5
17 0 24 -2 18 -5z m44 1 c-3 -3 -12 -4 -19 -1 -8 3 -5 6 6 6 11 1 17 -2 13 -5z
m-202 -23 c-6 -5 -21 -11 -35 -15 -21 -5 -20 -3 5 9 35 17 42 18 30 6z m282 3
c-3 -3 -12 -4 -19 -1 -8 3 -5 6 6 6 11 1 17 -2 13 -5z m865 -65 c15 -24 30
-57 33 -74 6 -29 6 -29 -9 -10 -8 11 -19 25 -24 31 -5 6 -13 20 -16 32 -4 12
-12 22 -18 22 -6 0 -9 3 -5 6 9 9 -21 36 -32 30 -5 -3 -11 1 -14 8 -3 8 -1 17
6 19 20 8 50 -17 79 -64z m-384 41 c-13 -20 -28 -27 -28 -12 0 10 22 32 32 32
5 0 3 -9 -4 -20z m-428 -27 c-12 -8 -24 -12 -27 -9 -4 3 0 6 8 6 12 0 11 2 -1
11 -12 9 -12 10 4 5 14 -5 17 -2 12 10 -5 14 -4 15 9 4 14 -11 13 -14 -5 -27z
m-410 12 c-7 -8 -18 -15 -24 -15 -6 0 -2 7 8 15 25 19 32 19 16 0z m59 1 c-2
-2 -15 -7 -29 -10 l-25 -7 25 15 c21 12 42 14 29 2z m308 -12 c-3 -3 -12 -4
-19 -1 -8 3 -5 6 6 6 11 1 17 -2 13 -5z m98 -4 c3 -5 2 -10 -4 -10 -5 0 -13 5
-16 10 -3 6 -2 10 4 10 5 0 13 -4 16 -10z m339 2 c3 -5 -1 -9 -9 -9 -8 0 -12
4 -9 9 3 4 7 8 9 8 2 0 6 -4 9 -8z m-31 -39 c-7 -3 -13 -10 -13 -18 0 -7 -7
-19 -17 -26 -15 -13 -15 -12 -3 11 19 36 32 51 39 44 3 -4 0 -9 -6 -11z m-863
-8 c-7 -8 -17 -15 -22 -15 -6 0 -5 7 2 15 7 8 17 15 22 15 6 0 5 -7 -2 -15z
m630 -17 c0 -12 -6 -9 -26 13 -19 22 -19 22 4 8 12 -8 22 -17 22 -21z m-655
-26 c-3 -3 -11 0 -18 7 -9 10 -8 11 6 5 10 -3 15 -9 12 -12z m682 -34 c-3 -8
-6 -5 -6 6 -1 11 2 17 5 13 3 -3 4 -12 1 -19z m52 -25 c14 -21 17 -31 8 -27
-13 4 -37 45 -37 61 0 7 0 8 29 -34z m94 12 c-3 -9 -8 -14 -10 -11 -3 3 -2 9
2 15 9 16 15 13 8 -4z m544 -17 c-3 -7 -5 -2 -5 12 0 14 2 19 5 13 2 -7 2 -19
0 -25z m-1421 -9 c0 -13 -3 -15 -13 -7 -7 6 -13 14 -13 18 0 3 6 7 13 7 7 0
13 -8 13 -18z m859 -18 c3 -5 1 -12 -5 -16 -5 -3 -10 1 -10 9 0 18 6 21 15 7z
m-35 -46 c0 -5 -5 -3 -10 5 -5 8 -10 20 -10 25 0 6 5 3 10 -5 5 -8 10 -19 10
-25z m590 31 c0 -11 -44 -85 -48 -81 -3 2 0 10 5 17 6 7 13 25 17 41 3 15 11
27 16 27 6 0 10 -2 10 -4z m-1456 -22 c3 -8 2 -12 -4 -9 -6 3 -10 10 -10 16 0
14 7 11 14 -7z m45 -29 c0 -5 -4 -3 -9 5 -5 8 -9 22 -9 30 0 16 17 -16 18 -35z
m1476 -73 c-6 -4 -11 -14 -13 -22 -4 -18 -62 -75 -62 -61 0 6 11 18 25 27 15
10 25 26 25 39 0 13 6 25 13 28 16 6 24 -2 12 -11z m-1573 -77 c3 -13 1 -22
-4 -19 -5 3 -6 -7 -3 -23 4 -23 4 -24 -4 -7 -7 17 -5 74 4 74 1 0 5 -11 7 -25z
m543 4 c11 -16 2 -17 -25 -2 -24 12 -24 13 -3 13 12 0 25 -5 28 -11z m1062
-16 c-10 -22 -13 -24 -15 -9 -2 10 2 22 10 27 19 12 19 12 5 -18z m-975 -10
c-8 -3 -5 -11 10 -24 23 -19 23 -19 -9 -2 -29 16 -28 34 2 32 6 0 4 -3 -3 -6z
m-352 -25 c-30 -16 -46 -30 -48 -45 -2 -13 -8 -23 -14 -23 -5 0 -7 7 -4 16 3
9 6 20 6 25 0 10 69 48 90 49 8 0 -6 -10 -30 -22z m-75 2 c3 -5 1 -10 -4 -10
-6 0 -11 5 -11 10 0 6 2 10 4 10 3 0 8 -4 11 -10z m1365 -39 c0 -4 -6 -8 -14
-8 -8 0 -12 6 -9 14 5 13 23 9 23 -6z m-293 -17 c-3 -3 -12 -4 -19 -1 -8 3 -5
6 6 6 11 1 17 -2 13 -5z m-774 -11 c-13 -2 -35 -2 -50 0 -16 2 -5 4 22 4 28 0
40 -2 28 -4z m913 -8 c-13 -10 -15 -15 -6 -15 7 0 11 -2 8 -5 -3 -3 -13 -2
-23 1 -15 6 -15 8 6 20 32 18 39 17 15 -1z m-1028 -2 c-10 -2 -26 -2 -35 0
-10 3 -2 5 17 5 19 0 27 -2 18 -5z m865 0 c-7 -2 -19 -2 -25 0 -7 3 -2 5 12 5
14 0 19 -2 13 -5z m62 -11 c-3 -3 -11 0 -18 7 -9 10 -8 11 6 5 10 -3 15 -9 12
-12z m-890 -2 c-3 -5 -14 -10 -23 -9 -14 0 -13 2 3 9 27 11 27 11 20 0z m138
3 c-7 -2 -19 -2 -25 0 -7 3 -2 5 12 5 14 0 19 -2 13 -5z m652 -13 c-27 -12
-43 -12 -25 0 8 5 22 9 30 9 10 0 8 -3 -5 -9z m242 -7 c-4 -3 -1 -13 6 -21 11
-13 9 -14 -10 -1 -16 9 -19 16 -10 21 15 9 23 10 14 1z m-1107 -13 c8 -5 11
-10 5 -10 -5 0 -17 5 -25 10 -8 5 -10 10 -5 10 6 0 17 -5 25 -10z m67 4 c-3
-3 -12 -4 -19 -1 -8 3 -5 6 6 6 11 1 17 -2 13 -5z m1086 -53 c2 -10 1 -25 -4
-32 -6 -10 -9 -8 -9 8 0 12 -3 29 -7 39 -4 11 -3 15 4 11 6 -4 13 -15 16 -26z
m-1536 -3 c-3 -8 -6 -5 -6 6 -1 11 2 17 5 13 3 -3 4 -12 1 -19z m1228 -18 c3
-5 2 -10 -4 -10 -5 0 -13 5 -16 10 -3 6 -2 10 4 10 5 0 13 -4 16 -10z m85 6
c0 -2 -15 -6 -34 -8 -19 -2 -32 0 -30 4 5 8 64 12 64 4z m-1263 -138 c-3 -7
-5 -2 -5 12 0 14 2 19 5 13 2 -7 2 -19 0 -25z m303 12 c-8 -5 -22 -9 -30 -9
-10 0 -8 3 5 9 27 12 43 12 25 0z m240 6 c0 -2 -7 -6 -15 -10 -8 -3 -15 -1
-15 4 0 6 7 10 15 10 8 0 15 -2 15 -4z m737 -2 c-3 -3 -12 -4 -19 -1 -8 3 -5
6 6 6 11 1 17 -2 13 -5z m-337 -47 c0 -16 -18 3 -23 25 -6 22 -5 22 8 4 8 -11
15 -24 15 -29z m-993 -4 c-3 -10 -5 -4 -5 12 0 17 2 24 5 18 2 -7 2 -21 0 -30z
m958 7 c18 -34 18 -40 5 -40 -5 0 -9 3 -8 8 5 19 -15 53 -28 48 -8 -3 -14 -1
-14 4 0 22 30 8 45 -20z m372 24 c-3 -3 -12 -4 -19 -1 -8 3 -5 6 6 6 11 1 17
-2 13 -5z m-686 -35 c6 -13 6 -19 -1 -19 -5 0 -10 5 -10 11 0 7 -8 18 -17 25
-17 13 -17 14 0 8 10 -4 22 -15 28 -25z m216 9 c-3 -8 -6 -5 -6 6 -1 11 2 17
5 13 3 -3 4 -12 1 -19z m531 5 c-10 -2 -26 -2 -35 0 -10 3 -2 5 17 5 19 0 27
-2 18 -5z m-1038 -27 c0 -2 -8 -10 -17 -17 -16 -13 -17 -12 -4 4 13 16 21 21
21 13z m-340 -21 c0 -8 -4 -15 -10 -15 -5 0 -7 7 -4 15 4 8 8 15 10 15 2 0 4
-7 4 -15z m1220 11 c0 -2 -7 -7 -16 -10 -8 -3 -12 -2 -9 4 6 10 25 14 25 6z
m265 -6 c3 -5 1 -10 -4 -10 -6 0 -11 5 -11 10 0 6 2 10 4 10 3 0 8 -4 11 -10z
m30 0 c3 -5 1 -10 -4 -10 -6 0 -11 5 -11 10 0 6 2 10 4 10 3 0 8 -4 11 -10z
m-910 -21 c5 -6 4 -14 -4 -21 -10 -11 -11 -10 -6 5 5 12 2 17 -11 17 -11 0
-26 5 -34 11 -11 8 -8 9 15 4 17 -3 34 -11 40 -16z m570 -13 c0 -15 -4 -21 -9
-16 -5 5 -6 16 -3 24 9 22 12 20 12 -8z m-548 -18 c-3 -7 -5 -2 -5 12 0 14 2
19 5 13 2 -7 2 -19 0 -25z m902 4 c6 -11 5 -23 -3 -34 -10 -13 -19 -15 -46 -7
l-35 8 33 -3 c39 -3 52 15 33 46 -7 12 -8 17 -2 13 6 -3 15 -14 20 -23z m-101
-3 c40 -15 23 -17 -25 -3 -27 8 -52 16 -58 19 -16 8 58 -7 83 -16z m-445 -34
c5 -28 4 -34 -3 -20 -8 19 -14 73 -6 64 2 -2 6 -22 9 -44z m-995 10 c-3 -3 -9
2 -12 12 -6 14 -5 15 5 6 7 -7 10 -15 7 -18z m19 -7 c-3 -8 -6 -5 -6 6 -1 11
2 17 5 13 3 -3 4 -12 1 -19z m20 -50 c-3 -7 -5 -2 -5 12 0 14 2 19 5 13 2 -7
2 -19 0 -25z m1022 -58 c0 -9 -4 -8 -9 5 -5 11 -9 27 -9 35 0 9 4 8 9 -5 5
-11 9 -27 9 -35z m-96 -21 c-4 -4 -9 6 -10 24 -1 30 -1 31 8 8 5 -14 6 -28 2
-32z m77 -3 c0 -12 -5 -7 -19 24 -11 24 -11 24 3 6 9 -11 16 -24 16 -30z
m-497 17 c-7 -2 -19 -2 -25 0 -7 3 -2 5 12 5 14 0 19 -2 13 -5z m-63 -20 c-1
-9 -50 -47 -50 -39 0 5 41 46 47 46 2 0 3 -3 3 -7z m115 -11 c-3 -3 -11 0 -18
7 -9 10 -8 11 6 5 10 -3 15 -9 12 -12z m462 -14 c-3 -8 -6 -5 -6 6 -1 11 2 17
5 13 3 -3 4 -12 1 -19z m-1587 8 c0 -3 -4 -8 -10 -11 -5 -3 -10 -1 -10 4 0 6
5 11 10 11 6 0 10 -2 10 -4z m125 -29 c14 -20 22 -67 9 -55 -5 5 -7 14 -13 48
-1 3 -5 0 -9 -6 -4 -7 -15 -8 -27 -3 -19 7 -19 8 3 8 24 1 32 21 8 21 -8 0
-17 4 -20 9 -12 19 35 -2 49 -22z m1885 17 c0 -2 -7 -4 -15 -4 -8 0 -15 4 -15
10 0 5 7 7 15 4 8 -4 15 -8 15 -10z m-150 -4 c-8 -5 -19 -10 -25 -10 -5 0 -3
5 5 10 8 5 20 10 25 10 6 0 3 -5 -5 -10z m75 -8 c-3 -3 -11 0 -18 7 -9 10 -8
11 6 5 10 -3 15 -9 12 -12z m-1990 -2 c-27 -12 -43 -12 -25 0 8 5 22 9 30 9
10 0 8 -3 -5 -9z m2033 -9 c3 -8 -1 -12 -9 -9 -7 2 -15 10 -17 17 -3 8 1 12 9
9 7 -2 15 -10 17 -17z m-1058 -26 c0 -19 -2 -35 -4 -35 -2 0 -6 16 -8 35 -2
19 0 35 4 35 4 0 8 -16 8 -35z m895 25 c3 -5 1 -10 -4 -10 -6 0 -11 5 -11 10
0 6 2 10 4 10 3 0 8 -4 11 -10z m-218 -22 c-3 -8 -6 -5 -6 6 -1 11 2 17 5 13
3 -3 4 -12 1 -19z m-1640 6 c-3 -3 -12 -4 -19 -1 -8 3 -5 6 6 6 11 1 17 -2 13
-5z m1013 -46 c0 -9 10 -24 22 -32 12 -9 17 -16 11 -16 -16 0 -43 28 -43 45 0
7 -3 22 -6 32 -5 15 -4 15 5 3 6 -8 11 -23 11 -32z m840 32 c0 -5 -4 -10 -10
-10 -5 0 -10 5 -10 10 0 6 5 10 10 10 6 0 10 -4 10 -10z m-1326 -16 c3 -8 2
-12 -4 -9 -6 3 -10 10 -10 16 0 14 7 11 14 -7z m1521 -24 c0 -27 -2 -35 -8
-24 -7 13 -2 64 6 64 1 0 2 -18 2 -40z m-1843 -46 c-5 -9 -8 -1 -9 23 -1 33 0
35 8 15 5 -13 5 -30 1 -38z m969 23 c-10 -9 -11 -8 -5 6 3 10 9 15 12 12 3 -3
0 -11 -7 -18z m-1157 -2 c-4 -8 -11 -15 -16 -15 -6 0 -5 6 2 15 7 8 14 15 16
15 2 0 1 -7 -2 -15z m493 -27 c-3 -8 -6 -5 -6 6 -1 11 2 17 5 13 3 -3 4 -12 1
-19z m1087 -38 c-5 -5 -10 7 -10 28 -2 37 -2 37 8 9 6 -16 6 -33 2 -37z m252
33 c-10 -10 -19 5 -10 18 6 11 8 11 12 0 2 -7 1 -15 -2 -18z m164 -8 c-7 -8
-18 -15 -24 -15 -6 0 -3 5 7 11 9 5 17 18 18 27 0 11 2 12 6 4 3 -7 -1 -19 -7
-27z m-1853 -7 c-3 -8 -6 -5 -6 6 -1 11 2 17 5 13 3 -3 4 -12 1 -19z m329 -4
c-4 -9 -9 -15 -11 -12 -3 3 -3 13 1 22 4 9 9 15 11 12 3 -3 3 -13 -1 -22z
m1430 -9 c20 -2 39 -6 42 -10 4 -4 -8 -4 -27 0 -22 5 -31 4 -27 -3 3 -6 -4 -5
-19 1 -14 7 -25 16 -25 20 0 5 5 5 10 2 6 -4 27 -8 46 -10z m-1697 -50 c0 -5
-4 -3 -9 5 -5 8 -9 22 -9 30 0 16 17 -16 18 -35z m251 25 c0 -5 -4 -10 -9 -10
-4 0 -7 -16 -5 -35 1 -19 -2 -37 -7 -40 -5 -4 -6 0 -3 8 3 8 1 18 -5 22 -6 3
-11 11 -11 16 0 6 5 7 11 4 6 -4 10 -1 8 6 -3 25 1 39 11 39 6 0 10 -4 10 -10z
m-583 -77 c-3 -10 -5 -2 -5 17 0 19 2 27 5 18 2 -10 2 -26 0 -35z m539 -2 c-4
-5 -13 -8 -21 -5 -8 3 -20 -4 -27 -15 -7 -12 -17 -21 -22 -21 -5 0 1 11 14 25
13 14 30 23 38 20 10 -4 12 0 8 12 -6 14 -4 15 5 6 6 -6 8 -16 5 -22z m1278
-31 l6 -35 -14 35 c-17 42 -20 58 -7 45 5 -6 12 -26 15 -45z m-117 8 c-3 -8
-6 -5 -6 6 -1 11 2 17 5 13 3 -3 4 -12 1 -19z m20 -10 c-3 -7 -5 -2 -5 12 0
14 2 19 5 13 2 -7 2 -19 0 -25z m-1730 -20 c-3 -8 -6 -5 -6 6 -1 11 2 17 5 13
3 -3 4 -12 1 -19z m440 -4 c-16 -9 -31 -13 -34 -10 -3 3 5 10 18 15 37 15 47
12 16 -5z m-420 -31 c-3 -10 -5 -4 -5 12 0 17 2 24 5 18 2 -7 2 -21 0 -30z
m350 31 c-3 -3 -12 -4 -19 -1 -8 3 -5 6 6 6 11 1 17 -2 13 -5z m1350 -26 c-3
-8 -6 -5 -6 6 -1 11 2 17 5 13 3 -3 4 -12 1 -19z m133 -28 c0 -10 -4 -21 -9
-24 -4 -3 -8 8 -7 23 1 31 16 32 16 1z m-1617 3 c-7 -2 -19 -2 -25 0 -7 3 -2
5 12 5 14 0 19 -2 13 -5z m-219 -19 c3 -8 2 -12 -4 -9 -6 3 -10 10 -10 16 0
14 7 11 14 -7z m1774 -6 c-2 -6 -10 -13 -16 -14 -9 -2 -9 -1 -1 3 8 4 7 8 -2
14 -11 7 -10 9 4 9 10 0 17 -5 15 -12z m69 -30 c-3 -8 -6 -5 -6 6 -1 11 2 17
5 13 3 -3 4 -12 1 -19z m-34 -27 c-11 -9 -18 -22 -17 -29 1 -7 0 -8 -3 -2 -2
5 -12 10 -21 11 -12 0 -10 3 6 9 12 5 25 16 28 25 3 8 11 12 17 8 6 -4 3 -12
-10 -22z m-1737 -19 c-17 -16 -18 -16 -5 5 7 12 15 20 18 17 3 -2 -3 -12 -13
-22z m1766 6 c-8 -8 -9 -15 -1 -25 7 -8 8 -13 1 -13 -16 0 -23 30 -9 45 6 7
14 11 16 9 3 -2 -1 -10 -7 -16z m-504 -27 c6 -16 6 -34 1 -42 -6 -10 -8 -9 -7
6 1 11 -2 30 -6 43 -11 33 0 27 12 -7z m372 25 c0 -2 -7 -7 -16 -10 -8 -3 -12
-2 -9 4 6 10 25 14 25 6z m-103 -22 c-3 -3 -12 -4 -19 -1 -8 3 -5 6 6 6 11 1
17 -2 13 -5z m-337 -34 c0 -5 -5 -10 -11 -10 -5 0 -7 5 -4 10 3 6 8 10 11 10
2 0 4 -4 4 -10z m141 -122 c11 -21 11 -22 -4 -9 -10 7 -17 17 -17 22 0 15 9
10 21 -13z m-26 -80 c5 4 5 1 1 -6 -6 -11 -15 -7 -37 14 -16 15 -29 32 -29 37
0 5 13 -5 29 -22 15 -16 32 -27 36 -23z m160 32 c13 -6 15 -9 5 -9 -8 0 -22 4
-30 9 -18 12 -2 12 25 0z m-40 -10 c3 -6 -1 -7 -9 -4 -18 7 -21 14 -7 14 6 0
13 -4 16 -10z m60 -20 c7 -12 -2 -12 -30 0 -19 8 -19 9 2 9 12 1 25 -3 28 -9z
m38 4 c-7 -3 -9 -13 -6 -22 4 -14 3 -14 -5 -2 -12 16 -7 30 11 29 9 0 9 -2 0
-5z m-186 -30 c-3 -3 -12 -4 -19 -1 -8 3 -5 6 6 6 11 1 17 -2 13 -5z m106 -31
c-7 -2 -21 -2 -30 0 -10 3 -4 5 12 5 17 0 24 -2 18 -5z m50 -20 c-7 -2 -19 -2
-25 0 -7 3 -2 5 12 5 14 0 19 -2 13 -5z m-16 -19 c-3 -3 -12 -4 -19 -1 -8 3
-5 6 6 6 11 1 17 -2 13 -5z m710 -76 c-2 -13 -4 -3 -4 22 0 25 2 35 4 23 2
-13 2 -33 0 -45z m-2037 -345 c-11 -17 -11 -17 -6 0 3 10 7 26 7 35 1 15 2 15
6 0 2 -10 -1 -25 -7 -35z m1980 37 c0 -5 -2 -10 -4 -10 -3 0 -8 5 -11 10 -3 6
-1 10 4 10 6 0 11 -4 11 -10z m-26 -44 c-6 -15 -24 -23 -24 -11 0 8 24 34 28
30 1 -1 0 -10 -4 -19z m-1924 -86 c-13 -9 -13 -11 0 -20 9 -6 10 -10 3 -10 -6
0 -15 5 -18 10 -8 13 3 30 18 30 7 0 6 -4 -3 -10z m1784 -5 c-10 -8 -23 -14
-29 -14 -5 0 -1 6 9 14 11 8 24 15 30 15 5 0 1 -7 -10 -15z m-1114 -16 c0 -6
-4 -7 -10 -4 -5 3 -10 11 -10 16 0 6 5 7 10 4 6 -3 10 -11 10 -16z m150 1 c8
-5 11 -10 5 -10 -5 0 -17 5 -25 10 -8 5 -10 10 -5 10 6 0 17 -5 25 -10z m880
-44 c0 -2 -7 -7 -16 -10 -8 -3 -12 -2 -9 4 6 10 25 14 25 6z m30 -31 c0 -2
-10 -9 -22 -15 -22 -11 -22 -10 -4 4 21 17 26 19 26 11z m-1483 -21 c-3 -3
-12 -4 -19 -1 -8 3 -5 6 6 6 11 1 17 -2 13 -5z m1266 -51 c-7 -2 -21 -2 -30 0
-10 3 -4 5 12 5 17 0 24 -2 18 -5z m-718 -13 c3 -5 1 -10 -4 -10 -6 0 -11 5
-11 10 0 6 2 10 4 10 3 0 8 -4 11 -10z m-388 -6 c-3 -3 -12 -4 -19 -1 -8 3 -5
6 6 6 11 1 17 -2 13 -5z m1116 -1 c-7 -2 -21 -2 -30 0 -10 3 -4 5 12 5 17 0
24 -2 18 -5z m-1073 -13 c0 -5 -4 -10 -9 -10 -6 0 -13 5 -16 10 -3 6 1 10 9
10 9 0 16 -4 16 -10z m415 -48 c-7 -8 -35 7 -35 18 0 6 7 6 20 -2 10 -7 17
-14 15 -16z m-319 2 c19 -15 19 -15 -1 -6 -11 5 -27 12 -35 15 -13 5 -13 6 1
6 8 1 24 -6 35 -15z m51 10 c-3 -3 -12 -4 -19 -1 -8 3 -5 6 6 6 11 1 17 -2 13
-5z m287 -39 c-4 -8 -8 -15 -10 -15 -2 0 -4 7 -4 15 0 8 4 15 10 15 5 0 7 -7
4 -15z m-254 -5 c0 -5 -2 -10 -4 -10 -3 0 -8 5 -11 10 -3 6 -1 10 4 10 6 0 11
-4 11 -10z m290 -10 c-8 -5 -19 -10 -25 -10 -5 0 -3 5 5 10 8 5 20 10 25 10 6
0 3 -5 -5 -10z m77 -36 c-3 -3 -12 -4 -19 -1 -8 3 -5 6 6 6 11 1 17 -2 13 -5z
m69 -30 c19 -15 19 -15 -1 -6 -11 5 -27 12 -35 15 -13 5 -13 6 1 6 8 1 24 -6
35 -15z m-210 -9 c24 -18 7 -19 -26 0 -16 9 -19 14 -9 15 8 0 24 -7 35 -15z
m94 -40 c33 -19 21 -19 -21 0 -19 8 -27 14 -19 14 8 0 26 -6 40 -14z m363 -2
c-7 -2 -21 -2 -30 0 -10 3 -4 5 12 5 17 0 24 -2 18 -5z m-297 -31 c-10 -2 -22
0 -28 6 -6 6 0 7 19 4 21 -5 23 -7 9 -10z m84 -32 c18 -12 2 -12 -25 0 -13 6
-15 9 -5 9 8 0 22 -4 30 -9z m55 -20 c3 -5 2 -10 -4 -10 -5 0 -13 5 -16 10 -3
6 -2 10 4 10 5 0 13 -4 16 -10z m-1880 -1645 c54 -670 245 -1973 443 -3027 l9
-48 -238 0 -239 0 2 1678 c1 922 3 1657 5 1632 2 -25 10 -130 18 -235z m14944
-992 c23 -70 40 -128 38 -129 -1 -1 -85 -3 -187 -5 l-185 -4 -44 123 c-24 67
-45 121 -47 120 -2 -2 13 -53 31 -112 19 -60 35 -115 35 -123 0 -10 -37 -13
-185 -13 -102 0 -185 1 -185 3 0 1 -20 60 -45 130 -25 71 -45 131 -45 133 0 2
175 4 390 4 l389 0 40 -127z m-318 -241 c16 -46 31 -92 34 -103 6 -18 -1 -19
-177 -21 l-183 -2 160 -6 c88 -4 172 -8 187 -9 24 -1 29 -9 62 -109 20 -59 36
-111 36 -115 0 -4 -84 -6 -187 -5 l-186 3 -74 220 c-40 121 -73 223 -73 228 0
4 84 6 187 5 l186 -3 28 -83z m400 -7 c16 -49 29 -96 29 -102 0 -10 -43 -13
-184 -13 l-184 0 -31 93 c-17 50 -31 98 -31 105 0 10 41 12 186 10 l186 -3 29
-90z m397 -2 c18 -54 32 -101 32 -105 0 -5 -83 -8 -184 -8 l-184 0 -30 83
c-16 45 -33 92 -36 105 l-7 22 188 0 189 0 32 -97z m400 -1 c18 -54 32 -101
32 -105 0 -4 -84 -6 -187 -5 l-186 3 -33 90 c-18 50 -33 96 -33 103 -1 9 43
12 187 12 l188 0 32 -98z m-8951 -78 c-3 -3 -12 -4 -19 -1 -8 3 -5 6 6 6 11 1
17 -2 13 -5z m71 -1 c-10 -2 -26 -2 -35 0 -10 3 -2 5 17 5 19 0 27 -2 18 -5z
m106 -2 c18 -7 18 -8 3 -14 -9 -3 -17 -2 -17 3 0 5 -15 11 -32 13 l-33 4 30 1
c17 0 39 -3 49 -7z m-477 -17 c-3 -3 -12 -4 -19 -1 -8 3 -5 6 6 6 11 1 17 -2
13 -5z m110 0 c-3 -3 -12 -4 -19 -1 -8 3 -5 6 6 6 11 1 17 -2 13 -5z m190 0
c-3 -3 -12 -4 -19 -1 -8 3 -5 6 6 6 11 1 17 -2 13 -5z m208 -4 c-3 -5 -12 -10
-18 -10 -7 0 -6 4 3 10 19 12 23 12 15 0z m-208 -16 c-3 -3 -12 -4 -19 -1 -8
3 -5 6 6 6 11 1 17 -2 13 -5z m273 -9 c0 -2 -6 -5 -13 -8 -8 -3 -14 1 -14 8 0
7 6 11 14 8 7 -3 13 -6 13 -8z m7954 -92 c42 -129 46 -137 56 -127 6 6 -4 47
-25 108 -19 54 -35 100 -35 102 0 2 86 4 190 4 144 0 190 -3 190 -12 0 -27 64
-188 71 -181 4 4 -5 45 -22 91 -16 46 -29 88 -29 93 0 6 74 8 187 7 l186 -3
34 -100 c18 -54 33 -105 33 -112 0 -10 -35 -13 -155 -13 -104 0 -155 -4 -155
-11 0 -7 51 -10 162 -8 l162 3 33 -99 c18 -55 35 -107 39 -117 5 -17 -5 -18
-162 -18 -125 0 -165 -3 -157 -11 8 -8 60 -10 172 -7 l160 5 37 -106 c19 -58
38 -112 41 -118 4 -10 -37 -13 -185 -13 l-190 0 -37 110 c-20 60 -34 114 -30
120 3 5 1 10 -5 10 -22 0 -19 -28 15 -130 19 -57 35 -105 35 -107 0 -2 -84 -2
-187 -1 l-188 3 -36 104 c-20 58 -41 107 -47 109 -16 5 -17 7 23 -102 19 -53
35 -101 35 -107 0 -6 -71 -8 -187 -7 l-186 3 -38 113 -38 112 175 0 c109 0
174 4 174 10 0 6 -66 10 -178 10 l-177 0 -34 103 c-19 56 -36 108 -39 115 -3
9 35 12 171 12 104 0 178 4 182 10 4 6 -63 11 -181 12 l-187 3 -38 113 -38
112 188 0 187 0 28 -87z m-7930 68 c3 -4 -3 -16 -14 -26 -16 -15 -23 -16 -33
-6 -9 10 -8 15 7 27 23 16 33 18 40 5z m-867 -83 c-3 -7 -5 -2 -5 12 0 14 2
19 5 13 2 -7 2 -19 0 -25z m953 7 c7 -9 8 -15 2 -15 -5 0 -12 7 -16 15 -3 8
-4 15 -2 15 2 0 9 -7 16 -15z m-40 -15 c0 -5 -2 -10 -4 -10 -3 0 -8 5 -11 10
-3 6 -1 10 4 10 6 0 11 -4 11 -10z m77 -23 c-4 -13 8 -28 38 -45 16 -9 16 -11
4 -12 -20 0 -52 35 -54 60 -1 10 2 17 7 14 5 -3 7 -11 5 -17z m-1030 -49 c-3
-7 -5 -2 -5 12 0 14 2 19 5 13 2 -7 2 -19 0 -25z m20 -40 c-3 -8 -6 -5 -6 6
-1 11 2 17 5 13 3 -3 4 -12 1 -19z m1083 12 c-8 -5 -19 -10 -25 -10 -5 0 -3 5
5 10 8 5 20 10 25 10 6 0 3 -5 -5 -10z m45 -18 c-3 -3 -11 0 -18 7 -9 10 -8
11 6 5 10 -3 15 -9 12 -12z m7291 -18 l59 -6 34 -102 c19 -55 36 -107 39 -113
3 -10 -37 -13 -179 -15 l-184 -2 182 -5 c100 -4 184 -8 187 -11 3 -3 23 -56
45 -118 l40 -112 -192 0 -192 1 -82 244 -82 245 133 0 c73 0 160 -3 192 -6z
m-7221 -29 c17 -14 26 -25 21 -25 -4 0 -21 11 -38 25 -16 14 -26 25 -21 25 4
-1 22 -12 38 -25z m93 -117 c-3 -21 -4 -21 -18 -3 -12 15 -12 17 -1 10 11 -6
13 -4 8 8 -18 45 -19 51 -3 29 10 -12 16 -32 14 -44z m-33 32 c3 -5 1 -10 -4
-10 -6 0 -11 5 -11 10 0 6 2 10 4 10 3 0 8 -4 11 -10z m-255 -10 c-8 -5 -19
-10 -25 -10 -5 0 -3 5 5 10 8 5 20 10 25 10 6 0 3 -5 -5 -10z m-993 -52 c-3
-8 -6 -5 -6 6 -1 11 2 17 5 13 3 -3 4 -12 1 -19z m0 -60 c-3 -8 -6 -5 -6 6 -1
11 2 17 5 13 3 -3 4 -12 1 -19z m1208 -38 c3 -5 1 -10 -4 -10 -6 0 -11 5 -11
10 0 6 2 10 4 10 3 0 8 -4 11 -10z m-1218 -22 c-3 -8 -6 -5 -6 6 -1 11 2 17 5
13 3 -3 4 -12 1 -19z m983 -18 c8 -5 12 -11 10 -14 -3 -2 -14 2 -24 10 -22 15
-10 19 14 4z m-103 -6 c-3 -3 -12 -4 -19 -1 -8 3 -5 6 6 6 11 1 17 -2 13 -5z
m-870 -51 c-3 -10 -5 -2 -5 17 0 19 2 27 5 18 2 -10 2 -26 0 -35z m1183 26 c0
-6 -4 -7 -10 -4 -5 3 -10 11 -10 16 0 6 5 7 10 4 6 -3 10 -11 10 -16z m-193
-54 c25 -25 44 -48 41 -50 -2 -3 -26 18 -53 45 -27 28 -46 50 -42 50 5 0 29
-20 54 -45z m273 -9 c0 -26 -6 -18 -14 19 -5 22 -4 26 4 15 5 -8 10 -24 10
-34z m-500 20 c0 -3 -4 -8 -10 -11 -5 -3 -10 -1 -10 4 0 6 5 11 10 11 6 0 10
-2 10 -4z m-660 -16 c-34 -11 -60 -11 -35 0 11 5 29 8 40 8 16 0 15 -2 -5 -8z
m88 -12 c-8 -6 2 -8 32 -4 31 3 39 2 25 -4 -17 -7 -14 -9 14 -9 19 -1 32 -4
29 -7 -3 -3 -33 -2 -67 2 -46 5 -59 10 -51 19 5 6 7 15 3 19 -4 4 1 4 11 0 14
-5 15 -9 4 -16z m1159 -10 c-3 -7 -5 -2 -5 12 0 14 2 19 5 13 2 -7 2 -19 0
-25z m-1207 12 c-8 -5 -22 -9 -30 -9 -10 0 -8 3 5 9 27 12 43 12 25 0z m533 3
c-7 -2 -19 -2 -25 0 -7 3 -2 5 12 5 14 0 19 -2 13 -5z m-87 -12 c-4 -5 -3 -11
1 -14 5 -2 2 -2 -5 0 -7 1 -23 -2 -34 -8 -11 -6 -22 -8 -25 -5 -3 3 10 12 28
20 42 18 41 18 35 7z m51 -7 c-3 -3 -12 -4 -19 -1 -8 3 -5 6 6 6 11 1 17 -2
13 -5z m420 -20 c-4 -4 5 -20 18 -36 14 -16 25 -39 24 -51 -1 -16 -3 -14 -10
10 -5 18 -19 39 -30 47 -18 12 -19 36 -2 36 4 0 3 -3 0 -6z m80 -46 c-3 -8 -6
-5 -6 6 -1 11 2 17 5 13 3 -3 4 -12 1 -19z m198 -8 c3 -5 1 -10 -4 -10 -6 0
-11 5 -11 10 0 6 2 10 4 10 3 0 8 -4 11 -10z m8527 -100 c21 -58 38 -108 38
-112 0 -5 -85 -8 -189 -8 l-189 0 -33 98 c-17 53 -34 102 -36 109 -5 12 156
20 327 19 l45 -1 37 -105z m-8625 33 c-2 -16 -4 -5 -4 22 0 28 2 40 4 28 2
-13 2 -35 0 -50z m7835 -46 l38 -107 -192 2 -191 3 -34 100 c-18 54 -33 103
-33 107 0 5 84 7 187 6 l187 -3 38 -108z m363 96 c15 -36 65 -187 65 -195 0
-4 -84 -8 -188 -8 l-188 0 -36 110 -36 110 188 0 c170 0 189 -2 195 -17z
m-8128 1 c-3 -3 -12 -4 -19 -1 -8 3 -5 6 6 6 11 1 17 -2 13 -5z m-183 -104 c4
-24 3 -28 -2 -15 -14 31 -24 83 -13 65 5 -8 11 -31 15 -50z m261 -34 c11 -62
11 -66 -7 -66 -16 0 -18 9 -18 72 0 39 3 69 6 65 3 -3 12 -35 19 -71z m-127
-57 c-7 -5 -20 -8 -28 -8 -8 0 -5 4 8 9 13 6 23 19 23 32 2 23 2 23 6 -1 3
-13 -1 -27 -9 -32z m-116 16 c3 -14 1 -25 -3 -25 -5 0 -9 11 -9 25 0 14 2 25
4 25 2 0 6 -11 8 -25z m-1784 -107 l-3 -73 -742 -3 -743 -2 0 -285 0 -285
-225 0 c-184 0 -225 2 -225 14 0 7 -23 98 -51 202 -76 283 -109 408 -109 415
0 3 186 9 413 12 406 6 755 21 1277 56 146 10 298 19 338 20 l73 1 -3 -72z"/>
<path d="M16168 4017 c41 -6 83 -6 125 0 59 10 55 10 -63 10 -118 0 -122 0
-62 -10z"/>
<path d="M16552 4017 c45 -6 88 -6 125 1 53 9 47 9 -67 9 -121 0 -123 0 -58
-10z"/>
<path d="M17381 3447 c-15 -15 -14 -27 3 -27 9 0 24 -31 41 -82 15 -46 34 -90
41 -98 20 -21 17 -4 -15 93 -17 48 -26 87 -20 87 18 0 9 17 -15 28 -17 7 -27
7 -35 -1z"/>
<path d="M17005 3431 c-7 -12 63 -221 81 -241 21 -22 17 -4 -21 110 -19 57
-35 108 -35 112 0 4 30 8 68 8 47 0 63 3 52 10 -19 12 -137 13 -145 1z"/>
<path d="M17180 3430 c20 -13 157 -13 165 0 4 6 -27 10 -87 10 -64 0 -88 -3
-78 -10z"/>
<path d="M17470 3200 c0 -7 -53 -10 -171 -10 -112 1 -175 -2 -182 -9 -8 -8 39
-11 170 -11 143 0 183 3 192 14 8 10 9 16 1 21 -5 3 -10 1 -10 -5z"/>
<path d="M8980 3640 c-8 -5 -11 -12 -7 -16 4 -4 15 0 24 9 18 18 8 23 -17 7z"/>
<path d="M11935 10180 c-22 -4 68 -7 200 -7 151 0 220 3 185 7 -69 10 -331 10
-385 0z"/>
<path d="M9513 9990 c0 -25 2 -35 4 -22 2 12 2 32 0 45 -2 12 -4 2 -4 -23z"/>
<path d="M9521 9899 c0 -15 6 -118 14 -230 80 -1116 160 -2523 196 -3464 7
-170 16 -314 20 -320 13 -13 11 76 -11 595 -47 1113 -105 2076 -185 3090 -26
323 -31 376 -34 329z"/>
<path d="M16200 9527 l-1 -312 -320 -210 c-176 -115 -339 -223 -362 -240 l-42
-30 75 -7 c41 -4 95 -11 120 -17 l45 -10 240 160 240 160 5 -171 5 -170 275
246 c151 135 375 334 497 442 l222 197 1 138 0 138 -500 -1 -500 -1 0 -312z"/>
<path d="M11631 9010 c-1 -393 -4 -852 -7 -1020 -16 -800 -19 -1126 -14 -1133
7 -9 14 173 31 788 13 471 13 1982 0 2040 -5 24 -9 -240 -10 -675z"/>
<path d="M7029 9455 c-1 -5 -1 -12 -1 -15 0 -9 121 -475 182 -705 122 -458
271 -1080 330 -1376 34 -167 63 -305 65 -308 21 -20 -59 419 -145 798 -106
468 -422 1649 -431 1606z"/>
<path d="M24179 9379 c-277 -40 -482 -154 -598 -333 -69 -106 -84 -160 -89
-328 -4 -128 -6 -146 -21 -146 -33 3 -97 -15 -159 -42 -116 -53 -222 -185
-252 -313 -16 -69 -12 -203 11 -354 23 -151 21 -188 -11 -241 -26 -42 -67 -59
-175 -71 -100 -12 -156 -35 -209 -89 -91 -90 -111 -185 -76 -362 13 -63 26
-153 30 -200 l7 -85 1 77 c1 44 -7 123 -19 185 -36 185 -18 284 68 369 52 51
108 73 210 85 103 11 149 31 180 77 35 53 38 109 14 261 -35 222 -26 342 31
456 57 112 181 203 313 231 29 6 29 5 -8 -18 -134 -85 -264 -287 -296 -463
-17 -93 -13 -149 20 -275 38 -142 35 -191 -13 -246 -35 -40 -77 -63 -181 -100
-119 -43 -164 -71 -202 -122 -59 -81 -69 -125 -61 -282 10 -186 -16 -293 -82
-347 -9 -7 -14 -15 -11 -17 2 -2 128 -38 279 -80 151 -42 282 -79 291 -81 12
-4 25 12 50 60 l34 65 7 -47 c4 -26 15 -58 26 -72 29 -40 96 -72 160 -78 54
-5 59 -3 96 29 l40 35 -17 109 c-30 197 -38 345 -38 704 1 600 18 742 114 965
59 139 183 296 274 347 l30 18 18 -48 c43 -114 144 -224 250 -273 33 -15 105
-36 160 -48 55 -12 120 -29 145 -38 96 -35 150 -101 169 -207 17 -95 19 -93
-47 -99 -63 -5 -142 -39 -142 -61 0 -17 44 -26 134 -26 l71 0 16 -63 c9 -34
19 -69 23 -78 6 -13 -2 -17 -46 -22 -29 -4 -72 -17 -97 -29 -45 -24 -90 -72
-78 -85 4 -3 33 4 65 17 107 45 187 39 416 -33 80 -24 107 -38 137 -68 66 -66
75 -154 33 -327 -54 -221 -30 -397 77 -557 62 -92 145 -164 251 -215 43 -22
96 -52 116 -69 51 -40 86 -55 104 -45 8 5 162 117 342 249 180 132 365 267
410 300 45 33 205 149 354 259 l272 199 0 48 c0 71 -33 103 -192 185 -215 111
-230 130 -226 297 2 92 -1 118 -15 145 -30 55 -53 65 -290 133 -143 41 -196
100 -220 240 -47 275 -252 438 -596 474 -98 10 -244 50 -328 91 -84 40 -148
98 -271 247 -108 130 -214 192 -382 223 -82 14 -311 17 -401 3z m-199 -728 c0
-11 3 -28 6 -38 3 -10 -2 -7 -10 7 -18 29 -20 50 -6 50 6 0 10 -9 10 -19z
m365 -296 c164 -43 225 -70 289 -126 59 -52 75 -83 92 -178 16 -93 17 -101 4
-101 -5 0 -10 13 -10 30 0 45 -20 131 -40 170 -42 82 -104 116 -299 159 -138
31 -199 58 -266 117 l-40 34 65 -34 c38 -21 123 -50 205 -71z m426 -537 c19
-47 100 -130 170 -174 32 -21 57 -40 54 -42 -7 -7 -107 30 -144 54 -56 35 -87
72 -100 117 -7 23 -15 50 -17 60 -9 31 23 18 37 -15z m471 -542 c1 -39 -7
-120 -17 -180 -49 -308 16 -472 262 -666 27 -20 26 -20 -17 2 -69 35 -199 171
-237 248 -73 146 -85 298 -40 480 15 58 27 131 28 163 3 85 21 45 21 -47z"/>
<path d="M14470 8990 l0 -271 46 -49 c54 -58 47 -59 154 35 76 66 200 137 333
189 53 21 95 29 205 37 75 5 164 14 197 19 33 5 62 10 65 10 3 0 5 66 5 148
l-1 147 -502 3 -502 2 0 -270z"/>
<path d="M12800 8637 c0 -128 3 -178 13 -192 8 -11 42 -74 77 -140 35 -66 64
-122 66 -124 3 -3 228 180 244 199 3 3 21 18 40 34 19 16 62 52 95 81 33 29
129 112 213 184 l152 131 -450 0 -450 0 0 -173z"/>
<path d="M13689 8777 c-20 -17 -51 -45 -70 -61 -19 -16 -135 -115 -259 -220
-124 -104 -261 -222 -305 -260 -44 -39 -82 -72 -85 -74 -4 -3 30 -72 68 -136
31 -50 26 -82 -27 -211 -49 -118 -94 -261 -88 -278 5 -14 0 -25 67 143 27 69
49 122 50 119 0 -4 -9 -51 -20 -105 -44 -208 -61 -328 -45 -312 20 19 105 464
105 546 l0 67 253 130 c138 71 302 154 364 185 l112 55 1 223 0 222 -42 0
c-34 0 -51 -7 -79 -33z"/>
<path d="M14470 8621 c0 -33 5 -63 11 -67 6 -3 24 6 39 21 l29 28 -30 39 c-17
21 -35 38 -40 38 -5 0 -9 -27 -9 -59z"/>
<path d="M15255 8594 c-39 -26 -73 -50 -78 -53 -4 -4 46 -7 112 -7 l119 1 -34
38 c-19 20 -34 44 -34 52 0 22 -9 19 -85 -31z"/>
<path d="M10749 8440 c-1 -66 -2 -126 -3 -132 -1 -10 83 -12 374 -10 206 2
375 4 376 5 1 1 4 57 6 124 4 98 2 123 -10 128 -7 3 -178 5 -378 5 l-364 0 -1
-120z m728 92 c8 -5 11 -41 10 -112 -2 -93 -4 -105 -19 -104 -10 0 -171 1
-358 2 l-340 2 0 105 0 105 343 3 c188 1 344 3 347 4 3 2 10 -1 17 -5z"/>
<path d="M14963 8398 c-24 -16 -43 -32 -43 -34 0 -3 21 -31 47 -62 26 -32 48
-58 49 -60 1 -2 12 1 23 8 28 14 27 57 -1 87 -11 12 -24 38 -27 57 l-6 34 -42
-30z"/>
<path d="M15430 8004 c-19 -14 -63 -39 -97 -57 -35 -17 -63 -34 -63 -37 1 -3
7 -14 15 -24 14 -18 17 -17 67 30 29 27 68 62 87 77 43 35 37 42 -9 11z"/>
<path d="M23727 7995 c-43 -15 -87 -51 -87 -72 0 -11 31 -12 168 -7 92 4 171
10 176 15 14 12 -13 40 -59 60 -48 22 -143 24 -198 4z"/>
<path d="M23741 7686 c-46 -16 -101 -61 -101 -84 0 -8 6 -12 13 -10 121 45
193 48 277 9 64 -29 74 -28 55 9 -34 66 -156 104 -244 76z"/>
<path d="M24228 7650 c-51 -117 -74 -175 -115 -283 -59 -159 -123 -347 -123
-364 0 -8 11 -25 25 -38 22 -23 31 -25 117 -24 100 0 97 12 -8 24 -83 9 -94
14 -94 37 0 11 33 110 74 221 89 241 149 432 143 449 -2 7 -11 -3 -19 -22z"/>
<path d="M11860 7471 l0 -189 131 -1 c86 -1 128 2 124 9 -4 6 -54 10 -121 10
l-114 0 0 174 c0 106 -4 177 -10 181 -7 4 -10 -60 -10 -184z"/>
<path d="M24555 7445 c-14 -13 -25 -35 -25 -49 0 -34 38 -75 77 -82 27 -5 37
-1 64 25 26 27 30 37 25 64 -13 65 -94 90 -141 42z"/>
<path d="M23723 7450 c-47 -20 -57 -87 -18 -125 30 -31 82 -33 113 -5 28 26
30 90 4 113 -23 21 -70 29 -99 17z"/>
<path d="M6845 7036 c-33 -8 -89 -26 -125 -40 -78 -32 -207 -109 -192 -114 7
-2 24 5 39 16 53 37 153 82 239 107 68 20 108 25 193 25 142 0 206 -17 374
-99 78 -37 185 -88 237 -113 115 -55 362 -175 640 -310 113 -55 230 -111 261
-125 l57 -26 -30 -81 c-17 -45 -59 -162 -93 -261 -35 -99 -79 -225 -99 -280
-20 -55 -58 -163 -85 -240 -27 -77 -52 -147 -56 -156 -5 -14 -27 -8 -158 43
-84 32 -240 93 -347 135 -107 41 -208 81 -225 89 -16 7 -124 49 -240 93 -115
44 -327 125 -470 180 -143 56 -264 101 -270 101 -18 -1 67 -36 517 -215 244
-98 444 -178 445 -179 1 -1 -10 -48 -24 -104 -15 -59 -22 -107 -17 -111 5 -4
63 -28 129 -54 66 -25 190 -74 275 -108 192 -76 359 -139 369 -139 4 0 18 36
31 80 13 44 26 80 29 80 3 -1 27 -20 52 -43 26 -23 83 -75 127 -115 l81 -73 6
43 c4 24 12 93 19 153 l13 110 -35 65 c-74 138 -114 190 -154 202 -21 6 -38
12 -38 14 0 1 5 15 11 31 6 15 66 183 134 373 67 190 126 353 130 363 6 15
-25 33 -209 122 -119 58 -218 105 -220 105 -2 0 -86 40 -187 89 -252 121 -358
171 -363 171 -2 0 -84 38 -181 85 -98 47 -198 92 -224 101 -63 23 -285 28
-366 10z"/>
<path d="M24474 6875 c-19 -55 -48 -106 -81 -138 -35 -35 -123 -77 -163 -77
-25 0 -34 -16 -14 -24 25 -10 95 -7 139 5 94 26 177 173 135 239 -7 12 -10 11
-16 -5z"/>
<path d="M22621 6803 c-1 -6 -4 -20 -7 -30 -5 -17 -5 -17 6 0 6 10 9 23 6 30
-3 9 -5 9 -5 0z"/>
<path d="M11665 6350 c-4 -7 1116 -10 3631 -10 2001 0 3635 2 3633 4 -2 2
-1636 6 -3631 10 -2506 5 -3628 4 -3633 -4z"/>
<path d="M9751 5663 c1 -21 5 -51 9 -68 6 -23 8 -15 9 38 1 39 -3 67 -9 67 -5
0 -9 -17 -9 -37z"/>
<path d="M11425 5594 c-126 -12 -233 -23 -237 -23 -7 -1 14 -80 73 -278 29
-95 37 -113 54 -113 17 0 351 31 618 56 37 4 67 11 67 16 0 5 -48 90 -107 188
l-108 180 -65 -1 c-36 -1 -168 -12 -295 -25z m349 -16 c-1 -10 2 -16 6 -15 12
3 187 -290 178 -297 -2 -2 -138 -15 -303 -30 -165 -15 -309 -28 -320 -29 -15
-2 -24 8 -36 43 -72 207 -102 301 -97 306 6 6 504 43 548 40 17 -1 25 -6 24
-18z"/>
<path d="M9773 5200 c0 -69 3 -199 7 -290 l6 -165 1 175 c0 96 -3 227 -7 290
l-7 115 0 -125z"/>
<path d="M11553 5102 c9 -9 20 -29 26 -42 9 -24 9 -24 8 7 -1 17 -5 29 -8 27
-4 -2 -9 3 -13 11 -3 8 -11 15 -17 15 -8 0 -6 -6 4 -18z"/>
<path d="M14135 4946 c-13 -13 -27 -39 -30 -58 -4 -19 -5 -172 -3 -339 l3
-304 98 -3 97 -3 0 -139 c0 -118 2 -140 15 -140 13 0 15 52 15 404 0 359 -2
405 -16 408 -12 2 -16 19 -18 70 -2 59 -6 72 -31 98 -37 39 -94 42 -130 6z"/>
<path d="M13643 4908 c-64 -17 -65 -22 -66 -387 l-2 -330 95 -3 95 -3 3 -142
c2 -118 5 -143 17 -143 13 0 15 56 15 410 0 358 -2 410 -15 410 -11 0 -15 11
-16 38 -2 123 -43 172 -126 150z"/>
<path d="M13904 4550 c-53 -21 -54 -29 -54 -387 l0 -333 95 0 c78 0 95 -3 95
-15 0 -8 8 -15 18 -15 18 0 19 15 18 280 -1 260 -2 280 -18 280 -15 0 -18 10
-18 66 0 62 -2 68 -34 100 -34 34 -61 41 -102 24z"/>
<path d="M16938 4017 c41 -6 83 -6 125 0 59 10 55 10 -63 10 -118 0 -122 0
-62 -10z"/>
<path d="M17337 4017 c40 -6 85 -6 130 0 65 10 63 10 -62 10 -121 0 -126 0
-68 -10z"/>
<path d="M17687 4017 c29 -7 60 -7 95 0 51 10 50 10 -42 10 -86 1 -91 0 -53
-10z"/>
<path d="M13372 3340 c0 -14 2 -19 5 -12 2 6 2 18 0 25 -3 6 -5 1 -5 -13z"/>
<path d="M13383 3205 c0 -27 2 -38 4 -22 2 15 2 37 0 50 -2 12 -4 0 -4 -28z"/>
<path d="M13391 3094 c0 -27 4 -71 9 -99 6 -36 7 -23 3 45 -6 101 -14 136 -12
54z"/>
<path d="M22275 2880 l200 -5 5 -155 5 -155 5 163 5 162 -210 -2 -210 -2 200
-6z"/>
<path d="M19085 2760 c-170 -3 514 -6 1520 -6 1007 0 1675 3 1485 6 -404 8
-2554 8 -3005 0z"/>
<path d="M19225 2670 c-297 -3 284 -5 1290 -6 1167 0 1613 2 1230 7 -679 7
-1720 7 -2520 -1z"/>
<path d="M16481 2635 c1 -19 18 -51 18 -35 0 8 -4 22 -9 30 -5 8 -9 11 -9 5z"/>
</g>
</svg>
